<?xml version="1.0" encoding="iso-8859-1"?>
<!-- Uploaded to: SVG Repo, www.svgrepo.com, Generator: SVG Repo Mixer Tools -->
<!DOCTYPE svg PUBLIC "-//W3C//DTD SVG 1.1//EN" "http://www.w3.org/Graphics/SVG/1.1/DTD/svg11.dtd">
<svg fill="#000000" version="1.1" id="Capa_1" xmlns="http://www.w3.org/2000/svg" xmlns:xlink="http://www.w3.org/1999/xlink" 
	 width="800px" height="800px" viewBox="0 0 322.974 322.975"
	 xml:space="preserve">
<g>
	<g id="Artwork_82_">
		<g id="Layer_5_82_">
			<g>
				<path d="M237.103,67.19c-19.623-0.001-32.072,21.875-35.019,21.875c-2.576-0.001-14.516-21.875-35.02-21.876
					c-19.941,0.001-36.226,16.447-37.293,36.363c-0.6,11.25,3.027,19.811,8.137,27.566c10.211,15.493,54.853,52.791,64.241,52.791
					c9.592,0,53.83-37.163,64.106-52.791c5.123-7.79,8.738-16.316,8.138-27.567C273.328,83.636,257.046,67.189,237.103,67.19"/>
				<path d="M96.866,193.699c0,0-27.441,27.443-35.074,35.074c-0.582,0.582-3.246-0.082-4.053-0.225
					c-7.254-1.292-13.346,0.529-18.951,6.135L6.835,266.638c-9.113,9.112-9.113,23.886-0.002,32.998l16.5,16.501
					c9.113,9.111,23.887,9.111,32.998,0l31.955-31.955c5.547-5.548,6.457-12.91,5.25-20.1c-0.148-0.879,0.027-2.262,0.662-2.896
					c9.711-9.712,34.943-34.943,34.943-34.943c1.992-1.992,4.48-3.045,7.197-3.043c2.748-0.002,4.785,1.086,5.357,1.427
					c18.723,11.233,40.012,17.17,61.564,17.17c31.587,0,61.539-12.56,84.345-35.364c47.16-47.161,47.16-123.897,0-171.059
					c-22.81-22.808-53.185-35.37-85.531-35.369c-32.347,0-62.724,12.561-85.529,35.369c-39.525,39.525-46.838,98.161-18.189,145.918
					C100.321,184.583,100.692,189.872,96.866,193.699z M132.728,190.246C94.491,152.01,94.491,89.793,132.729,51.555
					c18.494-18.495,43.124-28.68,69.346-28.68s50.851,10.186,69.344,28.68C289.914,70.05,300.1,94.678,300.1,120.9
					c0,26.224-10.186,50.851-28.683,69.346c-18.494,18.494-43.121,28.68-69.344,28.68
					C175.85,218.926,151.223,208.74,132.728,190.246z"/>
			</g>
		</g>
	</g>
</g>
</svg>